<?xml version="1.0" standalone="no"?>
<!DOCTYPE svg PUBLIC "-//W3C//DTD SVG 20010904//EN"
 "http://www.w3.org/TR/2001/REC-SVG-20010904/DTD/svg10.dtd">
<svg version="1.0" xmlns="http://www.w3.org/2000/svg"
 width="514.000000pt" height="514.000000pt" viewBox="0 0 514.000000 514.000000"
 preserveAspectRatio="xMidYMid meet">
<metadata>
Created by potrace 1.14, written by Peter Selinger 2001-2017
</metadata>
<g transform="translate(0.000000,514.000000) scale(0.100000,-0.100000)"
fill="#000000" stroke="none">
<path d="M10 2570 l0 -2560 2560 0 2560 0 0 2560 0 2560 -2560 0 -2560 0 0
-2560z m3749 1249 c149 -14 279 -47 388 -100 70 -35 104 -59 168 -124 124
-124 180 -256 194 -459 18 -265 -42 -457 -193 -622 -110 -121 -268 -212 -451
-260 -91 -24 -121 -27 -342 -32 l-243 -4 -2 -422 -3 -421 -37 -3 c-21 -2 -38
-7 -38 -13 0 -5 -121 -9 -304 -9 l-304 0 -62 192 c-34 106 -73 230 -88 276
l-26 82 -432 0 -432 0 -40 -127 c-22 -71 -61 -194 -87 -275 l-47 -148 -299 0
c-233 0 -299 3 -299 13 0 6 199 559 443 1227 l442 1215 331 3 331 2 194 -546
194 -547 3 557 2 556 463 0 c254 0 513 -5 576 -11z"/>
<path d="M3280 3019 l0 -381 178 5 c197 5 249 16 329 70 54 36 106 107 125
170 7 23 13 89 12 147 0 94 -3 112 -28 168 -68 148 -195 202 -476 202 l-140 0
0 -381z"/>
<path d="M1981 3358 c-15 -95 -55 -235 -167 -586 -75 -235 -138 -430 -141
-434 -2 -5 135 -8 305 -8 l310 0 -45 138 c-161 500 -235 744 -247 815 -8 45
-14 79 -15 75z"/>
</g>
</svg>
